<mxfile host="app.diagrams.net" modified="2022-12-07T02:17:18.862Z" agent="5.0 (Windows NT 10.0; Win64; x64) AppleWebKit/537.36 (KHTML, like Gecko) Chrome/107.0.0.0 Safari/537.36 Edg/107.0.1418.56" etag="ZIEKOKK3wjXoEQNAuO2A" version="20.6.0" type="gitlab">
  <diagram name="Page-1" id="52a04d89-c75d-2922-d76d-85b35f80e030">
    <mxGraphModel dx="2265" dy="692" grid="1" gridSize="10" guides="1" tooltips="1" connect="1" arrows="1" fold="1" page="1" pageScale="1" pageWidth="1100" pageHeight="850" background="none" math="0" shadow="0">
      <root>
        <mxCell id="0" />
        <mxCell id="1" parent="0" />
        <mxCell id="W06Trd2OWitXyWGzXINa-115" value="" style="rounded=0;whiteSpace=wrap;html=1;labelBackgroundColor=none;fontFamily=Courier New;fontSize=10;fillColor=none;strokeColor=#000000;" vertex="1" parent="1">
          <mxGeometry x="-10" y="20" width="960" height="540" as="geometry" />
        </mxCell>
        <mxCell id="W06Trd2OWitXyWGzXINa-118" value="" style="rounded=0;whiteSpace=wrap;html=1;labelBackgroundColor=none;fontFamily=Courier New;fontSize=10;fillColor=#FFD700;strokeColor=#000000;" vertex="1" parent="1">
          <mxGeometry x="-10" y="20" width="70" height="540" as="geometry" />
        </mxCell>
        <mxCell id="W06Trd2OWitXyWGzXINa-108" style="edgeStyle=orthogonalEdgeStyle;rounded=0;orthogonalLoop=1;jettySize=auto;html=1;entryX=0.5;entryY=1;entryDx=0;entryDy=0;fontFamily=Courier New;fontSize=20;" edge="1" parent="1" source="W06Trd2OWitXyWGzXINa-13" target="W06Trd2OWitXyWGzXINa-61">
          <mxGeometry relative="1" as="geometry" />
        </mxCell>
        <mxCell id="W06Trd2OWitXyWGzXINa-13" value="Retorna 201 CREATED" style="whiteSpace=wrap;html=1;aspect=fixed;labelBackgroundColor=none;fontFamily=Courier New;fontSize=11;" vertex="1" parent="1">
          <mxGeometry x="220" y="450" width="70" height="70" as="geometry" />
        </mxCell>
        <mxCell id="W06Trd2OWitXyWGzXINa-55" style="edgeStyle=orthogonalEdgeStyle;rounded=0;orthogonalLoop=1;jettySize=auto;html=1;fontFamily=Courier New;fontSize=8;" edge="1" parent="1" source="W06Trd2OWitXyWGzXINa-27" target="W06Trd2OWitXyWGzXINa-54">
          <mxGeometry relative="1" as="geometry" />
        </mxCell>
        <mxCell id="W06Trd2OWitXyWGzXINa-27" value="POST /imputation" style="whiteSpace=wrap;html=1;aspect=fixed;labelBackgroundColor=none;fontFamily=Courier New;fontSize=10;" vertex="1" parent="1">
          <mxGeometry x="80" y="120" width="70" height="70" as="geometry" />
        </mxCell>
        <mxCell id="W06Trd2OWitXyWGzXINa-52" value="Cliente" style="text;html=1;strokeColor=none;fillColor=none;align=center;verticalAlign=middle;whiteSpace=wrap;rounded=0;labelBackgroundColor=none;fontFamily=Courier New;fontSize=20;rotation=-90;fontStyle=1" vertex="1" parent="1">
          <mxGeometry x="-40" y="110" width="130" height="65" as="geometry" />
        </mxCell>
        <mxCell id="W06Trd2OWitXyWGzXINa-53" value="Servidor" style="text;html=1;strokeColor=none;fillColor=none;align=center;verticalAlign=middle;whiteSpace=wrap;rounded=0;labelBackgroundColor=none;fontFamily=Courier New;fontSize=20;rotation=-90;fontStyle=1" vertex="1" parent="1">
          <mxGeometry x="-40" y="385" width="130" height="65" as="geometry" />
        </mxCell>
        <mxCell id="W06Trd2OWitXyWGzXINa-77" style="edgeStyle=orthogonalEdgeStyle;rounded=0;orthogonalLoop=1;jettySize=auto;html=1;entryX=0;entryY=0.5;entryDx=0;entryDy=0;fontFamily=Courier New;fontSize=9;" edge="1" parent="1" source="W06Trd2OWitXyWGzXINa-54" target="W06Trd2OWitXyWGzXINa-74">
          <mxGeometry relative="1" as="geometry" />
        </mxCell>
        <mxCell id="W06Trd2OWitXyWGzXINa-78" value="Não" style="edgeLabel;html=1;align=center;verticalAlign=middle;resizable=0;points=[];fontSize=9;fontFamily=Courier New;" vertex="1" connectable="0" parent="W06Trd2OWitXyWGzXINa-77">
          <mxGeometry x="-0.0819" relative="1" as="geometry">
            <mxPoint as="offset" />
          </mxGeometry>
        </mxCell>
        <mxCell id="W06Trd2OWitXyWGzXINa-79" style="edgeStyle=orthogonalEdgeStyle;rounded=0;orthogonalLoop=1;jettySize=auto;html=1;entryX=0.5;entryY=0;entryDx=0;entryDy=0;fontFamily=Courier New;fontSize=9;" edge="1" parent="1" source="W06Trd2OWitXyWGzXINa-54" target="W06Trd2OWitXyWGzXINa-60">
          <mxGeometry relative="1" as="geometry" />
        </mxCell>
        <mxCell id="W06Trd2OWitXyWGzXINa-80" value="Sim" style="edgeLabel;html=1;align=center;verticalAlign=middle;resizable=0;points=[];fontSize=9;fontFamily=Courier New;" vertex="1" connectable="0" parent="W06Trd2OWitXyWGzXINa-79">
          <mxGeometry x="-0.2247" relative="1" as="geometry">
            <mxPoint as="offset" />
          </mxGeometry>
        </mxCell>
        <mxCell id="W06Trd2OWitXyWGzXINa-54" value="&lt;p style=&quot;line-height: 50%;&quot;&gt;&lt;font size=&quot;1&quot;&gt;Passa na validação?&lt;/font&gt;&lt;/p&gt;" style="rhombus;whiteSpace=wrap;html=1;labelBackgroundColor=none;fontFamily=Courier New;fontSize=20;fillColor=default;verticalAlign=middle;labelPosition=center;verticalLabelPosition=middle;align=center;spacing=0;" vertex="1" parent="1">
          <mxGeometry x="75" y="325" width="80" height="80" as="geometry" />
        </mxCell>
        <mxCell id="W06Trd2OWitXyWGzXINa-56" value="{ time_series,&lt;br&gt;&amp;nbsp; method,&lt;br&gt;&amp;nbsp; order&amp;nbsp;&lt;span style=&quot;background-color: initial;&quot;&gt;}&lt;/span&gt;" style="text;html=1;strokeColor=none;fillColor=none;align=left;verticalAlign=middle;whiteSpace=wrap;rounded=0;labelBackgroundColor=none;fontFamily=Courier New;fontSize=8;fontStyle=1" vertex="1" parent="1">
          <mxGeometry x="120" y="210" width="90" height="30" as="geometry" />
        </mxCell>
        <mxCell id="W06Trd2OWitXyWGzXINa-81" style="edgeStyle=orthogonalEdgeStyle;rounded=0;orthogonalLoop=1;jettySize=auto;html=1;entryX=0;entryY=0.5;entryDx=0;entryDy=0;fontFamily=Courier New;fontSize=9;" edge="1" parent="1" source="W06Trd2OWitXyWGzXINa-60" target="W06Trd2OWitXyWGzXINa-13">
          <mxGeometry relative="1" as="geometry" />
        </mxCell>
        <mxCell id="W06Trd2OWitXyWGzXINa-83" value="Id" style="edgeLabel;html=1;align=center;verticalAlign=middle;resizable=0;points=[];fontSize=9;fontFamily=Courier New;" vertex="1" connectable="0" parent="W06Trd2OWitXyWGzXINa-81">
          <mxGeometry x="-0.1626" relative="1" as="geometry">
            <mxPoint y="-10" as="offset" />
          </mxGeometry>
        </mxCell>
        <mxCell id="W06Trd2OWitXyWGzXINa-60" value="&lt;font style=&quot;font-size: 11px;&quot;&gt;Cria processo de imputação&lt;/font&gt;" style="whiteSpace=wrap;html=1;aspect=fixed;labelBackgroundColor=none;fontFamily=Courier New;fontSize=11;fillColor=default;" vertex="1" parent="1">
          <mxGeometry x="80" y="450" width="70" height="70" as="geometry" />
        </mxCell>
        <mxCell id="W06Trd2OWitXyWGzXINa-86" style="edgeStyle=orthogonalEdgeStyle;rounded=0;orthogonalLoop=1;jettySize=auto;html=1;entryX=0.5;entryY=0;entryDx=0;entryDy=0;fontFamily=Courier New;fontSize=9;" edge="1" parent="1" source="W06Trd2OWitXyWGzXINa-61" target="W06Trd2OWitXyWGzXINa-62">
          <mxGeometry relative="1" as="geometry" />
        </mxCell>
        <mxCell id="W06Trd2OWitXyWGzXINa-61" value="&lt;font style=&quot;font-size: 9px;&quot;&gt;GET /imputation/&amp;lt;id&amp;gt;&lt;/font&gt;" style="whiteSpace=wrap;html=1;aspect=fixed;labelBackgroundColor=none;fontFamily=Courier New;fontSize=8;fillColor=default;" vertex="1" parent="1">
          <mxGeometry x="320" y="110" width="90" height="90" as="geometry" />
        </mxCell>
        <mxCell id="W06Trd2OWitXyWGzXINa-88" style="edgeStyle=orthogonalEdgeStyle;rounded=0;orthogonalLoop=1;jettySize=auto;html=1;fontFamily=Courier New;fontSize=9;" edge="1" parent="1" source="W06Trd2OWitXyWGzXINa-62" target="W06Trd2OWitXyWGzXINa-69">
          <mxGeometry relative="1" as="geometry" />
        </mxCell>
        <mxCell id="W06Trd2OWitXyWGzXINa-62" value="&lt;font style=&quot;font-size: 11px;&quot;&gt;Verifica status da imputação&lt;/font&gt;" style="whiteSpace=wrap;html=1;aspect=fixed;labelBackgroundColor=none;fontFamily=Courier New;fontSize=11;fillColor=default;" vertex="1" parent="1">
          <mxGeometry x="420" y="450" width="70" height="70" as="geometry" />
        </mxCell>
        <mxCell id="W06Trd2OWitXyWGzXINa-66" value="" style="endArrow=none;html=1;rounded=0;fontFamily=Courier New;fontSize=8;dashed=1;strokeWidth=2;" edge="1" parent="1">
          <mxGeometry width="50" height="50" relative="1" as="geometry">
            <mxPoint x="-10" y="289" as="sourcePoint" />
            <mxPoint x="950" y="290" as="targetPoint" />
          </mxGeometry>
        </mxCell>
        <mxCell id="W06Trd2OWitXyWGzXINa-89" style="edgeStyle=orthogonalEdgeStyle;rounded=0;orthogonalLoop=1;jettySize=auto;html=1;entryX=0.5;entryY=1;entryDx=0;entryDy=0;fontFamily=Courier New;fontSize=9;" edge="1" parent="1" source="W06Trd2OWitXyWGzXINa-69" target="W06Trd2OWitXyWGzXINa-71">
          <mxGeometry relative="1" as="geometry" />
        </mxCell>
        <mxCell id="W06Trd2OWitXyWGzXINa-90" value="Sim" style="edgeLabel;html=1;align=center;verticalAlign=middle;resizable=0;points=[];fontSize=9;fontFamily=Courier New;" vertex="1" connectable="0" parent="W06Trd2OWitXyWGzXINa-89">
          <mxGeometry x="-0.2433" relative="1" as="geometry">
            <mxPoint as="offset" />
          </mxGeometry>
        </mxCell>
        <mxCell id="W06Trd2OWitXyWGzXINa-91" style="edgeStyle=orthogonalEdgeStyle;rounded=0;orthogonalLoop=1;jettySize=auto;html=1;exitX=1;exitY=0.5;exitDx=0;exitDy=0;fontFamily=Courier New;fontSize=9;" edge="1" parent="1" source="W06Trd2OWitXyWGzXINa-69" target="W06Trd2OWitXyWGzXINa-70">
          <mxGeometry relative="1" as="geometry" />
        </mxCell>
        <mxCell id="W06Trd2OWitXyWGzXINa-92" value="Não" style="edgeLabel;html=1;align=center;verticalAlign=middle;resizable=0;points=[];fontSize=9;fontFamily=Courier New;" vertex="1" connectable="0" parent="W06Trd2OWitXyWGzXINa-91">
          <mxGeometry x="-0.273" relative="1" as="geometry">
            <mxPoint x="3" as="offset" />
          </mxGeometry>
        </mxCell>
        <mxCell id="W06Trd2OWitXyWGzXINa-69" value="Houve um erro?&amp;nbsp;" style="rhombus;whiteSpace=wrap;html=1;labelBackgroundColor=none;fontFamily=Courier New;fontSize=9;fillColor=default;" vertex="1" parent="1">
          <mxGeometry x="535" y="445" width="80" height="80" as="geometry" />
        </mxCell>
        <mxCell id="W06Trd2OWitXyWGzXINa-96" style="edgeStyle=orthogonalEdgeStyle;rounded=0;orthogonalLoop=1;jettySize=auto;html=1;entryX=0.5;entryY=1;entryDx=0;entryDy=0;fontFamily=Courier New;fontSize=9;" edge="1" parent="1" source="W06Trd2OWitXyWGzXINa-70" target="W06Trd2OWitXyWGzXINa-72">
          <mxGeometry relative="1" as="geometry" />
        </mxCell>
        <mxCell id="W06Trd2OWitXyWGzXINa-112" value="Não" style="edgeLabel;html=1;align=center;verticalAlign=middle;resizable=0;points=[];fontSize=10;fontFamily=Courier New;" vertex="1" connectable="0" parent="W06Trd2OWitXyWGzXINa-96">
          <mxGeometry x="-0.1175" y="-1" relative="1" as="geometry">
            <mxPoint as="offset" />
          </mxGeometry>
        </mxCell>
        <mxCell id="W06Trd2OWitXyWGzXINa-100" style="edgeStyle=orthogonalEdgeStyle;rounded=0;orthogonalLoop=1;jettySize=auto;html=1;entryX=0;entryY=0.5;entryDx=0;entryDy=0;fontFamily=Courier New;fontSize=9;" edge="1" parent="1" source="W06Trd2OWitXyWGzXINa-70" target="W06Trd2OWitXyWGzXINa-73">
          <mxGeometry relative="1" as="geometry" />
        </mxCell>
        <mxCell id="W06Trd2OWitXyWGzXINa-113" value="Sim" style="edgeLabel;html=1;align=center;verticalAlign=middle;resizable=0;points=[];fontSize=10;fontFamily=Courier New;" vertex="1" connectable="0" parent="W06Trd2OWitXyWGzXINa-100">
          <mxGeometry x="-0.2894" relative="1" as="geometry">
            <mxPoint as="offset" />
          </mxGeometry>
        </mxCell>
        <mxCell id="W06Trd2OWitXyWGzXINa-70" value="Imputação finalizada?" style="rhombus;whiteSpace=wrap;html=1;labelBackgroundColor=none;fontFamily=Courier New;fontSize=9;fillColor=default;" vertex="1" parent="1">
          <mxGeometry x="675" y="445" width="80" height="80" as="geometry" />
        </mxCell>
        <mxCell id="W06Trd2OWitXyWGzXINa-111" style="edgeStyle=orthogonalEdgeStyle;rounded=0;orthogonalLoop=1;jettySize=auto;html=1;entryX=0;entryY=0.5;entryDx=0;entryDy=0;fontFamily=Courier New;fontSize=20;exitX=0.5;exitY=0;exitDx=0;exitDy=0;" edge="1" parent="1" source="W06Trd2OWitXyWGzXINa-71" target="W06Trd2OWitXyWGzXINa-106">
          <mxGeometry relative="1" as="geometry">
            <mxPoint x="550" y="280" as="sourcePoint" />
            <Array as="points">
              <mxPoint x="575" y="155" />
            </Array>
          </mxGeometry>
        </mxCell>
        <mxCell id="W06Trd2OWitXyWGzXINa-71" value="Retorna resposta com mensagem informando erro" style="whiteSpace=wrap;html=1;aspect=fixed;labelBackgroundColor=none;fontFamily=Courier New;fontSize=9;fillColor=default;" vertex="1" parent="1">
          <mxGeometry x="540" y="335" width="70" height="70" as="geometry" />
        </mxCell>
        <mxCell id="W06Trd2OWitXyWGzXINa-98" style="edgeStyle=orthogonalEdgeStyle;rounded=0;orthogonalLoop=1;jettySize=auto;html=1;fontFamily=Courier New;fontSize=9;entryX=0.5;entryY=1;entryDx=0;entryDy=0;" edge="1" parent="1" source="W06Trd2OWitXyWGzXINa-72" target="W06Trd2OWitXyWGzXINa-106">
          <mxGeometry relative="1" as="geometry">
            <mxPoint x="715" y="180" as="targetPoint" />
          </mxGeometry>
        </mxCell>
        <mxCell id="W06Trd2OWitXyWGzXINa-72" value="Retorna resposta sem a série imputada" style="whiteSpace=wrap;html=1;aspect=fixed;labelBackgroundColor=none;fontFamily=Courier New;fontSize=11;fillColor=default;" vertex="1" parent="1">
          <mxGeometry x="680" y="335" width="70" height="70" as="geometry" />
        </mxCell>
        <mxCell id="W06Trd2OWitXyWGzXINa-102" style="edgeStyle=orthogonalEdgeStyle;rounded=0;orthogonalLoop=1;jettySize=auto;html=1;fontFamily=Courier New;fontSize=9;entryX=1;entryY=0.5;entryDx=0;entryDy=0;" edge="1" parent="1" source="W06Trd2OWitXyWGzXINa-73" target="W06Trd2OWitXyWGzXINa-106">
          <mxGeometry relative="1" as="geometry">
            <mxPoint x="800" y="170" as="targetPoint" />
            <Array as="points">
              <mxPoint x="910" y="460" />
              <mxPoint x="910" y="155" />
            </Array>
          </mxGeometry>
        </mxCell>
        <mxCell id="W06Trd2OWitXyWGzXINa-73" value="Retorna resposta com a série imputada" style="whiteSpace=wrap;html=1;aspect=fixed;labelBackgroundColor=none;fontFamily=Courier New;fontSize=11;fillColor=default;" vertex="1" parent="1">
          <mxGeometry x="810" y="450" width="70" height="70" as="geometry" />
        </mxCell>
        <mxCell id="W06Trd2OWitXyWGzXINa-110" style="edgeStyle=orthogonalEdgeStyle;rounded=0;orthogonalLoop=1;jettySize=auto;html=1;fontFamily=Courier New;fontSize=20;entryX=0.5;entryY=0;entryDx=0;entryDy=0;exitX=1;exitY=0.5;exitDx=0;exitDy=0;" edge="1" parent="1" source="W06Trd2OWitXyWGzXINa-74" target="W06Trd2OWitXyWGzXINa-106">
          <mxGeometry relative="1" as="geometry">
            <mxPoint x="300" y="10" as="targetPoint" />
            <Array as="points">
              <mxPoint x="290" y="365" />
              <mxPoint x="290" y="60" />
              <mxPoint x="715" y="60" />
            </Array>
          </mxGeometry>
        </mxCell>
        <mxCell id="W06Trd2OWitXyWGzXINa-74" value="Retorna 400 BAD REQUEST" style="whiteSpace=wrap;html=1;aspect=fixed;labelBackgroundColor=none;fontFamily=Courier New;fontSize=11;" vertex="1" parent="1">
          <mxGeometry x="200" y="330" width="70" height="70" as="geometry" />
        </mxCell>
        <mxCell id="W06Trd2OWitXyWGzXINa-85" value="&lt;b&gt;{ Id }&lt;/b&gt;" style="text;html=1;align=center;verticalAlign=middle;resizable=0;points=[];autosize=1;strokeColor=none;fillColor=none;fontSize=9;fontFamily=Courier New;spacing=0;" vertex="1" parent="1">
          <mxGeometry x="300" y="455" width="50" height="20" as="geometry" />
        </mxCell>
        <mxCell id="W06Trd2OWitXyWGzXINa-87" value="&lt;b&gt;{ Id }&lt;/b&gt;" style="text;html=1;align=center;verticalAlign=middle;resizable=0;points=[];autosize=1;strokeColor=none;fillColor=none;fontSize=9;fontFamily=Courier New;spacing=0;" vertex="1" parent="1">
          <mxGeometry x="450" y="415" width="50" height="20" as="geometry" />
        </mxCell>
        <mxCell id="W06Trd2OWitXyWGzXINa-95" value="&lt;b&gt;{ status: error }&lt;/b&gt;" style="text;html=1;align=center;verticalAlign=middle;resizable=0;points=[];autosize=1;strokeColor=none;fillColor=none;fontSize=9;fontFamily=Courier New;spacing=0;" vertex="1" parent="1">
          <mxGeometry x="570" y="305" width="110" height="20" as="geometry" />
        </mxCell>
        <mxCell id="W06Trd2OWitXyWGzXINa-99" value="&lt;b&gt;{ status: processing }&lt;/b&gt;" style="text;html=1;align=center;verticalAlign=middle;resizable=0;points=[];autosize=1;strokeColor=none;fillColor=none;fontSize=9;fontFamily=Courier New;spacing=0;" vertex="1" parent="1">
          <mxGeometry x="710" y="305" width="140" height="20" as="geometry" />
        </mxCell>
        <mxCell id="W06Trd2OWitXyWGzXINa-104" value="&lt;b&gt;{ status: finished,&lt;br&gt;imputed_data: [...] }&lt;/b&gt;" style="text;html=1;align=center;verticalAlign=middle;resizable=0;points=[];autosize=1;strokeColor=none;fillColor=none;fontSize=9;fontFamily=Courier New;spacing=0;" vertex="1" parent="1">
          <mxGeometry x="780" y="410" width="130" height="30" as="geometry" />
        </mxCell>
        <mxCell id="W06Trd2OWitXyWGzXINa-106" value="Fim" style="ellipse;whiteSpace=wrap;html=1;aspect=fixed;labelBackgroundColor=none;fontFamily=Courier New;fontSize=20;fillColor=#FFD700;strokeColor=#000000;" vertex="1" parent="1">
          <mxGeometry x="675" y="115" width="80" height="80" as="geometry" />
        </mxCell>
        <mxCell id="W06Trd2OWitXyWGzXINa-114" value="" style="rounded=0;whiteSpace=wrap;html=1;labelBackgroundColor=none;fontFamily=Courier New;fontSize=10;fillColor=default;" vertex="1" parent="1">
          <mxGeometry x="460" y="190" width="120" height="60" as="geometry" />
        </mxCell>
        <mxCell id="W06Trd2OWitXyWGzXINa-116" value="" style="endArrow=none;html=1;rounded=0;dashed=1;strokeWidth=2;fontFamily=Courier New;fontSize=10;" edge="1" parent="1">
          <mxGeometry width="50" height="50" relative="1" as="geometry">
            <mxPoint x="500" y="250" as="sourcePoint" />
            <mxPoint x="550" y="200" as="targetPoint" />
          </mxGeometry>
        </mxCell>
      </root>
    </mxGraphModel>
  </diagram>
</mxfile>
